<svg width="64" height="60" viewBox="0 0 64 60" fill="none" xmlns="http://www.w3.org/2000/svg">
<path d="M4.63768 30C4.63768 23.7785 6.55141 17.7108 10.1139 12.6372C13.6764 7.56356 18.7114 3.73491 24.5219 1.68135C30.3323 -0.372217 36.6307 -0.549099 42.5449 1.17519C48.4592 2.89948 53.6968 6.43963 57.5325 11.3055C61.3683 16.1714 63.6124 22.1222 63.9542 28.3342C64.296 34.5461 62.7186 40.7118 59.4403 45.9775C56.162 51.2433 51.3451 55.3486 45.6565 57.7251C39.9678 60.1016 33.6889 60.6317 27.689 59.242L29.2204 52.4876C33.8344 53.5563 38.663 53.1486 43.0377 51.3211C47.4123 49.4935 51.1166 46.3364 53.6377 42.287C56.1587 38.2375 57.3718 33.496 57.1089 28.7189C56.8461 23.9419 55.1203 19.3656 52.1706 15.6236C49.2208 11.8817 45.193 9.15924 40.6448 7.83324C36.0967 6.50723 31.2531 6.64326 26.7848 8.22248C22.3165 9.80171 18.4445 12.746 15.7048 16.6477C12.9652 20.5494 11.4935 25.2155 11.4935 30H4.63768Z" fill="#D0C46B"/>
<path d="M47.3159 31.3299C48.8164 30.6002 48.8164 28.4623 47.3159 27.7326L33.0196 20.7804C31.6912 20.1344 30.1449 21.1019 30.1449 22.579L30.1449 36.4835C30.1449 37.9606 31.6912 38.9281 33.0196 38.2821L47.3159 31.3299Z" fill="#5FA238"/>
<rect width="3.71015" height="16.875" rx="1" transform="matrix(-1 0 0 1 26.8986 21.5625)" fill="#B1CC86"/>
</svg>
