<svg width="77" height="65" viewBox="0 0 77 65" fill="none" xmlns="http://www.w3.org/2000/svg">
<path d="M64 32C64 25.3637 61.9368 18.8916 58.0959 13.4797C54.2551 8.0678 48.8267 3.98391 42.5624 1.79344C36.298 -0.397031 29.5076 -0.585706 23.1312 1.25354C16.7549 3.09278 11.1081 6.86894 6.97272 12.0592C2.83732 17.2495 0.417871 23.597 0.0493717 30.2231C-0.319128 36.8492 1.38155 43.4259 4.91593 49.0427C8.45032 54.6595 13.6436 59.0385 19.7766 61.5735C25.9097 64.1084 32.6792 64.6738 39.1478 63.1915L37.4968 55.9868C32.5223 57.1267 27.3165 56.6919 22.6 54.7425C17.8836 52.7931 13.8899 49.4255 11.1719 45.1061C8.4539 40.7867 7.14605 35.7291 7.42943 30.6335C7.71281 25.538 9.57341 20.6566 12.7536 16.6652C15.9338 12.6738 20.2763 9.76986 25.1798 8.35545C30.0833 6.94105 35.3052 7.08614 40.1226 8.77065C44.94 10.4552 49.1146 13.5957 52.0682 17.7576C55.0219 21.9194 56.6085 26.8966 56.6085 32H64Z" fill="#D0C46B"/>
<path d="M55.328 44.24V49.454H60.542V51.786H55.328V57H52.842V51.786H47.628V49.454H52.842V44.24H55.328ZM74.0137 43.426H67.4357L67.2597 47.144H67.3037C68.0371 46.7773 68.8437 46.594 69.7237 46.594C71.3077 46.594 72.5324 47.0267 73.3977 47.892C74.2631 48.7573 74.6957 49.982 74.6957 51.566C74.6957 55.3353 72.5471 57.22 68.2497 57.22C66.6804 57.22 65.2137 56.9047 63.8497 56.274L64.5097 53.788C65.8297 54.4187 67.0544 54.734 68.1837 54.734C70.5011 54.734 71.6597 53.678 71.6597 51.566C71.6597 49.8207 70.8164 48.948 69.1297 48.948C68.2644 48.948 67.5091 49.2487 66.8637 49.85H64.2237L64.6637 40.94H74.0137V43.426Z" fill="white"/>
<path d="M44.2541 29.6977C45.7646 30.4245 45.7646 32.5755 44.2541 33.3023L28.3671 40.9459C27.0393 41.5847 25.5 40.6171 25.5 39.1436L25.5 23.8564C25.5 22.3829 27.0393 21.4153 28.3671 22.0541L44.2541 29.6977Z" fill="#5FA238"/>
<rect x="22" y="40" width="4" height="18" rx="1" transform="rotate(-180 22 40)" fill="#B1CC86"/>
</svg>
