<svg width="64" height="64" viewBox="0 0 64 64" fill="none" xmlns="http://www.w3.org/2000/svg">
<rect x="21" y="22" width="8" height="20" rx="4" fill="#B1CC86"/>
<rect x="33" y="22" width="8" height="20" rx="4" fill="#B1CC86"/>
<path d="M64 32C64 49.6731 49.6731 64 32 64C14.3269 64 0 49.6731 0 32C0 14.3269 14.3269 0 32 0C49.6731 0 64 14.3269 64 32ZM7.39146 32C7.39146 45.5909 18.4091 56.6085 32 56.6085C45.5909 56.6085 56.6085 45.5909 56.6085 32C56.6085 18.4091 45.5909 7.39146 32 7.39146C18.4091 7.39146 7.39146 18.4091 7.39146 32Z" fill="#D0C46B"/>
</svg>
