<svg width="64" height="64" viewBox="0 0 64 64" fill="none" xmlns="http://www.w3.org/2000/svg">
<path d="M64 32C64 49.6731 49.6731 64 32 64C14.3269 64 0 49.6731 0 32C0 14.3269 14.3269 0 32 0C49.6731 0 64 14.3269 64 32ZM7.39146 32C7.39146 45.5909 18.4091 56.6085 32 56.6085C45.5909 56.6085 56.6085 45.5909 56.6085 32C56.6085 18.4091 45.5909 7.39146 32 7.39146C18.4091 7.39146 7.39146 18.4091 7.39146 32Z" fill="#D0C46B"/>
<path d="M45.2541 29.6977C46.7646 30.4245 46.7646 32.5755 45.2541 33.3023L29.3671 40.9459C28.0393 41.5847 26.5 40.6171 26.5 39.1436L26.5 23.8564C26.5 22.3829 28.0393 21.4153 29.3671 22.0541L45.2541 29.6977Z" fill="#5FA238"/>
<rect x="23" y="40" width="4" height="18" rx="1" transform="rotate(-180 23 40)" fill="#B1CC86"/>
</svg>
