<svg width="45" height="70" viewBox="0 0 45 70" fill="none" xmlns="http://www.w3.org/2000/svg">
<rect y="18" width="9" height="40" fill="#D0C46B"/>
<path d="M14.9 56C15.4333 52.3 15.8833 48.6167 16.25 44.95C16.6167 41.25 16.9333 37.4333 17.2 33.5C17.5 29.5667 17.7667 25.4 18 21H39.55C39.7833 25.4 40.0333 29.5667 40.3 33.5C40.6 37.4333 40.9333 41.25 41.3 44.95C41.7 48.6167 42.15 52.3 42.65 56H39.4C39.4 55.7 39.3833 55.2667 39.35 54.7C39.35 54.1 39.3167 53.5 39.25 52.9C39.2167 51.9667 39.1333 51.1333 39 50.4C38.8667 49.6333 38.6167 49.1 38.25 48.8C38.1167 48.7 37.9333 48.6167 37.7 48.55C37.4667 48.45 37.0333 48.3667 36.4 48.3C35.8 48.2333 34.8833 48.1833 33.65 48.15C32.45 48.1167 30.8167 48.1 28.75 48.1C26.6833 48.1 25.05 48.1167 23.85 48.15C22.65 48.1833 21.7333 48.2333 21.1 48.3C20.5 48.3667 20.0833 48.45 19.85 48.55C19.6167 48.6167 19.4333 48.7 19.3 48.8C18.9333 49.1 18.6833 49.6333 18.55 50.4C18.4167 51.1333 18.3333 51.9667 18.3 52.9C18.2333 53.5 18.1833 54.1 18.15 54.7C18.15 55.2667 18.15 55.7 18.15 56H14.9ZM28.75 40.25C30.25 40.25 31.5167 40.2333 32.55 40.2C33.6167 40.1667 34.5 40.1167 35.2 40.05C35.9333 39.95 36.5 39.8167 36.9 39.65C37.3 39.45 37.6 39.2 37.8 38.9C37.9 38.5333 37.95 38.0333 37.95 37.4C37.9833 36.7667 37.9667 35.9167 37.9 34.85C37.8333 33.9833 37.7667 33.3 37.7 32.8C37.6667 32.3 37.6167 31.9167 37.55 31.65C37.5167 31.3833 37.4667 31.2 37.4 31.1C37.3333 30.9667 37.2667 30.8667 37.2 30.8C36.9 30.5 36.4167 30.2833 35.75 30.15C35.0833 30.0167 34.1833 29.9333 33.05 29.9C31.9167 29.8667 30.4833 29.85 28.75 29.85C27.05 29.85 25.6167 29.8667 24.45 29.9C23.3167 29.9333 22.4333 30.0167 21.8 30.15C21.1667 30.2833 20.6833 30.5 20.35 30.8C20.2833 30.8667 20.2167 30.9667 20.15 31.1C20.0833 31.2 20.0167 31.3833 19.95 31.65C19.9167 31.9167 19.8667 32.3 19.8 32.8C19.7667 33.3 19.7167 33.9833 19.65 34.85C19.5833 35.9167 19.55 36.7667 19.55 37.4C19.5833 38.0333 19.65 38.5333 19.75 38.9C19.95 39.2 20.25 39.45 20.65 39.65C21.05 39.8167 21.6 39.95 22.3 40.05C23.0333 40.1167 23.9167 40.1667 24.95 40.2C26.0167 40.2333 27.2833 40.25 28.75 40.25Z" fill="#5FA238"/>
</svg>
