<svg width="44" height="70" viewBox="0 0 44 70" fill="none" xmlns="http://www.w3.org/2000/svg">
<rect x="35" y="19" width="9" height="40" fill="#D0C46B"/>
<path d="M3.5 56C3.53333 53.6 3.56667 51.6333 3.6 50.1C3.63333 48.5667 3.65 47.3 3.65 46.3C3.68333 45.2667 3.7 44.3833 3.7 43.65C3.7 42.8833 3.7 42.1167 3.7 41.35C3.7 40.55 3.7 39.6 3.7 38.5C3.7 37.3667 3.7 36.4167 3.7 35.65C3.7 34.85 3.7 34.0833 3.7 33.35C3.7 32.5833 3.68333 31.7 3.65 30.7C3.65 29.6667 3.63333 28.3833 3.6 26.85C3.56667 25.3167 3.53333 23.3667 3.5 21H17.8C21.1667 21 23.6833 21.7667 25.35 23.3C27.0167 24.8333 27.85 27.0833 27.85 30.05C27.85 31.0167 27.7167 31.9667 27.45 32.9C27.1833 33.8 26.7167 34.6667 26.05 35.5C25.4167 36.3 24.5 37 23.3 37.6C24.9 38 26.1833 38.6333 27.15 39.5C28.1167 40.3333 28.8333 41.35 29.3 42.55C29.7667 43.7167 30 45.0167 30 46.45C30 48.5167 29.6 50.2667 28.8 51.7C28 53.1333 26.8167 54.2167 25.25 54.95C23.7167 55.65 21.7833 56 19.45 56H3.5ZM14.55 47.5C16.2833 47.5 17.7 47.4833 18.8 47.45C19.9 47.4167 20.75 47.3667 21.35 47.3C21.9833 47.2 22.4667 47.1 22.8 47C23.1667 46.9 23.4833 46.7833 23.75 46.65C24.3167 46.4167 24.7833 46.0167 25.15 45.45C25.5167 44.8833 25.7 44.1833 25.7 43.35C25.7 42.65 25.5667 42.0667 25.3 41.6C25.0667 41.1333 24.7667 40.7667 24.4 40.5C24.0333 40.2333 23.7 40.0333 23.4 39.9C23.1 39.7667 22.7667 39.65 22.4 39.55C22.0667 39.45 21.6 39.3667 21 39.3C20.4 39.2333 19.5833 39.2 18.55 39.2C17.5167 39.1667 16.1833 39.15 14.55 39.15C12.95 39.15 11.6667 39.1667 10.7 39.2C9.73333 39.2 8.98333 39.2333 8.45 39.3C7.95 39.3667 7.56667 39.45 7.3 39.55C7.06667 39.6167 6.86667 39.7167 6.7 39.85C6.6 39.9167 6.48333 40.05 6.35 40.25C6.25 40.4167 6.16667 40.75 6.1 41.25C6.06667 41.7167 6.05 42.4167 6.05 43.35C6.05 44.25 6.06667 44.9333 6.1 45.4C6.16667 45.8333 6.25 46.15 6.35 46.35C6.48333 46.5167 6.6 46.65 6.7 46.75C6.86667 46.8833 7.06667 47 7.3 47.1C7.56667 47.1667 7.95 47.2333 8.45 47.3C8.98333 47.3667 9.73333 47.4167 10.7 47.45C11.6667 47.4833 12.95 47.5 14.55 47.5ZM14.2 36.6C16.0667 36.6 17.5333 36.5833 18.6 36.55C19.6667 36.5167 20.4667 36.45 21 36.35C21.5333 36.2167 21.95 36.0667 22.25 35.9C22.7167 35.7333 23.1167 35.4167 23.45 34.95C23.8167 34.4833 24 33.85 24 33.05C24 32.25 23.8167 31.6333 23.45 31.2C23.1167 30.7333 22.7167 30.4167 22.25 30.25C21.95 30.05 21.5333 29.9 21 29.8C20.4667 29.7 19.6667 29.65 18.6 29.65C17.5333 29.6167 16.0667 29.6 14.2 29.6C12.3333 29.6 10.9 29.6167 9.9 29.65C8.93333 29.65 8.21667 29.7 7.75 29.8C7.31667 29.9 6.98333 30.05 6.75 30.25C6.68333 30.3167 6.61667 30.4333 6.55 30.6C6.48333 30.7667 6.43333 31.0333 6.4 31.4C6.36667 31.7667 6.35 32.3167 6.35 33.05C6.35 33.7833 6.36667 34.35 6.4 34.75C6.43333 35.1167 6.48333 35.3833 6.55 35.55C6.61667 35.6833 6.68333 35.8 6.75 35.9C6.98333 36.0667 7.31667 36.2167 7.75 36.35C8.21667 36.45 8.93333 36.5167 9.9 36.55C10.9 36.5833 12.3333 36.6 14.2 36.6Z" fill="#5FA238"/>
</svg>
