<svg width="64" height="60" viewBox="0 0 64 60" fill="none" xmlns="http://www.w3.org/2000/svg">
<path d="M59.3623 30C59.3623 23.7785 57.4486 17.7108 53.8861 12.6372C50.3236 7.56356 45.2886 3.73491 39.4781 1.68135C33.6677 -0.372217 27.3693 -0.549099 21.4551 1.17519C15.5408 2.89948 10.3032 6.43963 6.46745 11.3055C2.63171 16.1714 0.387591 22.1222 0.045794 28.3342C-0.296003 34.5461 1.28143 40.7118 4.55971 45.9775C7.83798 51.2433 12.6549 55.3486 18.3435 57.7251C24.0322 60.1016 30.3111 60.6317 36.311 59.242L34.7796 52.4876C30.1656 53.5563 25.337 53.1486 20.9623 51.3211C16.5877 49.4935 12.8834 46.3364 10.3623 42.287C7.8413 38.2375 6.62822 33.496 6.89107 28.7189C7.15391 23.9419 8.87968 19.3656 11.8294 15.6236C14.7792 11.8817 18.807 9.15924 23.3552 7.83324C27.9033 6.50723 32.7469 6.64326 37.2152 8.22248C41.6835 9.80171 45.5555 12.746 48.2952 16.6477C51.0348 20.5494 52.5065 25.2155 52.5065 30H59.3623Z" fill="#D0C46B"/>
<path d="M16.6841 31.3299C15.1836 30.6002 15.1836 28.4623 16.6841 27.7326L30.9804 20.7804C32.3088 20.1344 33.8551 21.1019 33.8551 22.579V36.4835C33.8551 37.9606 32.3088 38.9281 30.9804 38.2821L16.6841 31.3299Z" fill="#5FA238"/>
<rect x="37.1014" y="21.5625" width="3.71015" height="16.875" rx="1" fill="#B1CC86"/>
</svg>
