<svg width="69" height="64" viewBox="0 0 69 64" fill="none" xmlns="http://www.w3.org/2000/svg">
<path d="M64 32C64 25.3637 61.9368 18.8916 58.0959 13.4797C54.2551 8.0678 48.8267 3.98391 42.5624 1.79344C36.298 -0.397031 29.5076 -0.585706 23.1312 1.25354C16.7549 3.09278 11.1081 6.86894 6.97272 12.0592C2.83732 17.2495 0.417871 23.597 0.0493717 30.2231C-0.319128 36.8492 1.38155 43.4259 4.91593 49.0427C8.45032 54.6595 13.6436 59.0385 19.7766 61.5735C25.9097 64.1084 32.6792 64.6738 39.1478 63.1915L37.4968 55.9868C32.5223 57.1267 27.3165 56.6919 22.6 54.7425C17.8836 52.7931 13.8899 49.4255 11.1719 45.1061C8.4539 40.7867 7.14605 35.7291 7.42943 30.6335C7.71281 25.538 9.57341 20.6566 12.7536 16.6652C15.9338 12.6738 20.2763 9.76986 25.1798 8.35545C30.0833 6.94105 35.3052 7.08614 40.1226 8.77065C44.94 10.4552 49.1146 13.5957 52.0682 17.7576C55.0219 21.9194 56.6085 26.8966 56.6085 32H64Z" fill="#D0C46B"/>
<path d="M45.628 50.786V48.454H52.734V50.786H45.628ZM66.1915 42.426H59.6135L59.4375 46.144H59.4815C60.2148 45.7773 61.0215 45.594 61.9015 45.594C63.4855 45.594 64.7101 46.0267 65.5755 46.892C66.4408 47.7573 66.8735 48.982 66.8735 50.566C66.8735 54.3353 64.7248 56.22 60.4275 56.22C58.8581 56.22 57.3915 55.9047 56.0275 55.274L56.6875 52.788C58.0075 53.4187 59.2321 53.734 60.3615 53.734C62.6788 53.734 63.8375 52.678 63.8375 50.566C63.8375 48.8207 62.9941 47.948 61.3075 47.948C60.4421 47.948 59.6868 48.2487 59.0415 48.85H56.4015L56.8415 39.94H66.1915V42.426Z" fill="white"/>
<path d="M17.7459 33.3023C16.2354 32.5755 16.2354 30.4245 17.7459 29.6977L33.6329 22.0541C34.9607 21.4153 36.5 22.3829 36.5 23.8564V39.1436C36.5 40.6171 34.9607 41.5847 33.6329 40.9459L17.7459 33.3023Z" fill="#5FA238"/>
<rect x="40" y="23" width="4" height="18" rx="1" fill="#B1CC86"/>
</svg>
