<svg width="64" height="64" viewBox="0 0 64 64" fill="none" xmlns="http://www.w3.org/2000/svg">
<rect width="64" height="64" rx="32" fill="#CD8787" fill-opacity="0.3"/>
<ellipse cx="3.92092" cy="8.47918" rx="1.46755" ry="2.18182" fill="#F89B9B"/>
<ellipse cx="11.9434" cy="8.47918" rx="1.46755" ry="2.18182" fill="#F89B9B"/>
<ellipse cx="19.9661" cy="8.47918" rx="1.46755" ry="2.18182" fill="#F89B9B"/>
<ellipse cx="27.9887" cy="8.47918" rx="1.46755" ry="2.18182" fill="#F89B9B"/>
<ellipse cx="36.0113" cy="8.47918" rx="1.46755" ry="2.18182" fill="#F89B9B"/>
<ellipse cx="44.0339" cy="8.47918" rx="1.46755" ry="2.18182" fill="#F89B9B"/>
<ellipse cx="52.0565" cy="8.47918" rx="1.46755" ry="2.18182" fill="#F89B9B"/>
<ellipse cx="60.0791" cy="8.47918" rx="1.46755" ry="2.18182" fill="#F89B9B"/>
<ellipse cx="3.92092" cy="46.2973" rx="1.46755" ry="2.18182" fill="#F89B9B"/>
<ellipse cx="11.9435" cy="46.2973" rx="1.46755" ry="2.18182" fill="#F89B9B"/>
<ellipse cx="19.9661" cy="46.2973" rx="1.46755" ry="2.18182" fill="#F89B9B"/>
<ellipse cx="27.9887" cy="46.2973" rx="1.46755" ry="2.18182" fill="#F89B9B"/>
<ellipse cx="36.0113" cy="46.2973" rx="1.46755" ry="2.18182" fill="#F89B9B"/>
<ellipse cx="44.034" cy="46.2973" rx="1.46755" ry="2.18182" fill="#F89B9B"/>
<ellipse cx="52.0565" cy="46.2973" rx="1.46755" ry="2.18182" fill="#F89B9B"/>
<ellipse cx="60.0792" cy="46.2973" rx="1.46755" ry="2.18182" fill="#F89B9B"/>
<ellipse cx="3.92092" cy="55.8974" rx="1.46755" ry="2.18182" fill="#F89B9B"/>
<ellipse cx="11.9435" cy="55.8974" rx="1.46755" ry="2.18182" fill="#F89B9B"/>
<ellipse cx="19.9661" cy="55.8974" rx="1.46755" ry="2.18182" fill="#F89B9B"/>
<ellipse cx="27.9887" cy="55.8974" rx="1.46755" ry="2.18182" fill="#F89B9B"/>
<ellipse cx="36.0113" cy="55.8974" rx="1.46755" ry="2.18182" fill="#F89B9B"/>
<ellipse cx="44.034" cy="55.8974" rx="1.46755" ry="2.18182" fill="#F89B9B"/>
<ellipse cx="52.0565" cy="55.8974" rx="1.46755" ry="2.18182" fill="#F89B9B"/>
<ellipse cx="60.0792" cy="55.8974" rx="1.46755" ry="2.18182" fill="#F89B9B"/>
<ellipse cx="3.92092" cy="36.6974" rx="1.46755" ry="2.18182" fill="#F89B9B"/>
<ellipse cx="11.9435" cy="36.6974" rx="1.46755" ry="2.18182" fill="#F89B9B"/>
<ellipse cx="52.0565" cy="36.6974" rx="1.46755" ry="2.18182" fill="#F89B9B"/>
<ellipse cx="60.0792" cy="36.6974" rx="1.46755" ry="2.18182" fill="#F89B9B"/>
<ellipse cx="3.92092" cy="27.0973" rx="1.46755" ry="2.18182" fill="#F89B9B"/>
<ellipse cx="11.9435" cy="27.0973" rx="1.46755" ry="2.18182" fill="#F89B9B"/>
<ellipse cx="52.0565" cy="27.0973" rx="1.46755" ry="2.18182" fill="#F89B9B"/>
<ellipse cx="60.0792" cy="27.0973" rx="1.46755" ry="2.18182" fill="#F89B9B"/>
<ellipse cx="3.92092" cy="17.4972" rx="1.46755" ry="2.18182" fill="#F89B9B"/>
<ellipse cx="11.9435" cy="17.4972" rx="1.46755" ry="2.18182" fill="#F89B9B"/>
<ellipse cx="19.9661" cy="17.4972" rx="1.46755" ry="2.18182" fill="#F89B9B"/>
<ellipse cx="27.9887" cy="17.4972" rx="1.46755" ry="2.18182" fill="#F89B9B"/>
<ellipse cx="36.0113" cy="17.4972" rx="1.46755" ry="2.18182" fill="#F89B9B"/>
<ellipse cx="44.034" cy="17.4972" rx="1.46755" ry="2.18182" fill="#F89B9B"/>
<ellipse cx="52.0565" cy="17.4972" rx="1.46755" ry="2.18182" fill="#F89B9B"/>
<ellipse cx="60.0792" cy="17.4972" rx="1.46755" ry="2.18182" fill="#F89B9B"/>
</svg>
